<svg height="512" viewBox="0 0 128 128" width="512" xmlns="http://www.w3.org/2000/svg" xmlns:xlink="http://www.w3.org/1999/xlink"><linearGradient id="a" gradientUnits="userSpaceOnUse" x1="123.461" x2="14.603" y1="118.967" y2="10.109"><stop offset="0" stop-color="#0d70b2"/><stop offset="1" stop-color="#00ddc1"/></linearGradient><path d="m3.562 51.875v-6.282a1.75 1.75 0 0 1 3.5 0v6.282a1.75 1.75 0 0 1 -3.5 0zm120.875-50.128v109.188a17.081 17.081 0 0 1 -17.062 17.065h-86.75a17.082 17.082 0 0 1 -17.063-17.065v-45.06a1.75 1.75 0 0 1 3.5 0v45.06a13.563 13.563 0 0 0 27.125 0v-87.31h-27.125v7.968a1.75 1.75 0 0 1 -3.5 0v-9.718a1.75 1.75 0 0 1 1.75-1.75h28.875v-18.378a1.75 1.75 0 0 1 1.75-1.747h86.75a1.749 1.749 0 0 1 1.75 1.747zm-3.5 1.75h-83.25v107.438a17.177 17.177 0 0 1 -6.72 13.562h76.408a13.578 13.578 0 0 0 13.562-13.562zm-56.7 28.1h11.855a1.75 1.75 0 0 0 0-3.5h-10.107v-5.553h10.107a1.75 1.75 0 0 0 0-3.5h-10.107v-5.544h10.107a1.75 1.75 0 0 0 0-3.5h-11.857a1.75 1.75 0 0 0 -1.75 1.75v18.1a1.75 1.75 0 0 0 1.75 1.742zm-18.3 0a1.749 1.749 0 0 0 1.75-1.75v-12.236l8.643 13.189a1.75 1.75 0 0 0 3.214-.959v-18.094a1.75 1.75 0 0 0 -3.5 0v12.231l-8.644-13.19a1.75 1.75 0 0 0 -3.214.959v18.1a1.75 1.75 0 0 0 1.751 1.745zm36.1-.073a1.752 1.752 0 0 0 1.963-.724l4.464-6.814 4.462 6.814a1.75 1.75 0 0 0 3.214-.959v-18.094a1.75 1.75 0 0 0 -3.5 0v12.231l-2.715-4.143a1.75 1.75 0 0 0 -2.928 0l-2.714 4.143v-12.231a1.75 1.75 0 0 0 -3.5 0v18.1a1.75 1.75 0 0 0 1.25 1.672zm26.654-3.427h-7.856a1.75 1.75 0 0 0 0 3.5h7.856a5.756 5.756 0 0 0 5.75-5.75v-1.053a5.756 5.756 0 0 0 -5.75-5.75h-3.856a2.253 2.253 0 0 1 -2.25-2.25v-1.047a2.253 2.253 0 0 1 2.25-2.25h7.856a1.75 1.75 0 0 0 0-3.5h-7.856a5.756 5.756 0 0 0 -5.75 5.75v1.047a5.756 5.756 0 0 0 5.75 5.75h3.856a2.253 2.253 0 0 1 2.25 2.25v1.048a2.253 2.253 0 0 1 -2.254 2.25zm-62.754 32.153h55.938a1.75 1.75 0 0 0 0-3.5h-54.188v-15.15h63.25v7.575a1.75 1.75 0 0 0 3.5 0v-9.325a1.749 1.749 0 0 0 -1.75-1.75h-66.75a1.75 1.75 0 0 0 -1.75 1.75v18.65a1.75 1.75 0 0 0 1.75 1.75zm8.125 6.508a1.75 1.75 0 0 0 0 3.5h50.5a1.75 1.75 0 0 0 0-3.5zm-8.125 15.434h66.75a1.75 1.75 0 0 0 0-3.5h-66.75a1.75 1.75 0 0 0 0 3.5zm8.125 8.436a1.75 1.75 0 0 0 0 3.5h50.5a1.75 1.75 0 0 0 0-3.5zm-8.125 15.435h66.75a1.75 1.75 0 0 0 0-3.5h-66.75a1.75 1.75 0 0 0 0 3.5zm58.625 8.434h-50.5a1.75 1.75 0 0 0 0 3.5h50.5a1.75 1.75 0 0 0 0-3.5z" fill="url(#a)"/></svg>